<svg width="164" height="64" viewBox="0 0 164 64" fill="none" xmlns="http://www.w3.org/2000/svg">
<line x1="1.35048" y1="44.2759" x2="26.3505" y2="0.974609" stroke="black" stroke-width="1.5"/>
<line x1="27.6495" y1="0.974609" x2="52.6495" y2="44.2759" stroke="black" stroke-width="1.5"/>
<line x1="2" y1="43.5996" x2="52" y2="43.5996" stroke="black" stroke-width="1.5"/>
<line x1="7" y1="51.1509" x2="47" y2="51.1509" stroke="black"/>
<line x1="16" y1="57.1509" x2="38" y2="57.1509" stroke="black"/>
<line x1="22.5" y1="63.1509" x2="31.5" y2="63.1509" stroke="black"/>
<line y1="-0.75" x2="20.2182" y2="-0.75" transform="matrix(0.469874 -0.882734 0.847533 0.530743 17 36.1968)" stroke="black" stroke-width="1.5"/>
<line y1="-0.75" x2="20.2182" y2="-0.75" transform="matrix(0.469874 0.882734 -0.847533 0.530743 26.5 18.3496)" stroke="black" stroke-width="1.5"/>
<line x1="17" y1="35.3237" x2="36" y2="35.3237" stroke="black" stroke-width="1.5"/>
<path d="M75.0398 21.86C73.8237 21.86 72.7251 22.0733 71.7437 22.5C70.7624 22.9053 69.9304 23.5133 69.2477 24.324C68.5651 25.1133 68.0424 26.084 67.6797 27.236C67.3171 28.3667 67.1357 29.6467 67.1357 31.076C67.1357 32.9533 67.4237 34.5853 67.9997 35.972C68.5971 37.3587 69.4717 38.4253 70.6237 39.172C71.7971 39.9187 73.2584 40.292 75.0077 40.292C76.0104 40.292 76.9598 40.2067 77.8558 40.036C78.7518 39.8653 79.6264 39.652 80.4797 39.396V41.892C79.6264 42.212 78.7411 42.4467 77.8237 42.596C76.9277 42.7453 75.8504 42.82 74.5918 42.82C72.2664 42.82 70.3251 42.34 68.7677 41.38C67.2104 40.42 66.0371 39.0547 65.2477 37.284C64.4797 35.5133 64.0957 33.4333 64.0957 31.044C64.0957 29.316 64.3304 27.7373 64.7997 26.308C65.2904 24.8787 65.9944 23.6413 66.9117 22.596C67.8504 21.5507 69.0024 20.7507 70.3677 20.196C71.7331 19.62 73.3011 19.332 75.0717 19.332C76.2451 19.332 77.3758 19.4493 78.4638 19.684C79.5518 19.9187 80.5224 20.2493 81.3757 20.676L80.2237 23.108C79.5197 22.788 78.7304 22.5 77.8558 22.244C77.0024 21.988 76.0638 21.86 75.0398 21.86ZM91.3865 25.028C92.8585 25.028 94.1172 25.348 95.1625 25.988C96.2292 26.628 97.0398 27.5347 97.5945 28.708C98.1705 29.86 98.4585 31.2147 98.4585 32.772V34.468H86.7145C86.7572 36.4093 87.2478 37.892 88.1865 38.916C89.1465 39.9187 90.4798 40.42 92.1865 40.42C93.2745 40.42 94.2345 40.324 95.0665 40.132C95.9198 39.9187 96.7945 39.62 97.6905 39.236V41.7C96.8158 42.084 95.9518 42.3613 95.0985 42.532C94.2452 42.724 93.2318 42.82 92.0585 42.82C90.4372 42.82 88.9972 42.4893 87.7385 41.828C86.5012 41.1667 85.5305 40.1853 84.8265 38.884C84.1438 37.5613 83.8025 35.9507 83.8025 34.052C83.8025 32.1747 84.1118 30.564 84.7305 29.22C85.3705 27.876 86.2558 26.8413 87.3865 26.116C88.5385 25.3907 89.8718 25.028 91.3865 25.028ZM91.3545 27.332C90.0105 27.332 88.9438 27.7693 88.1545 28.644C87.3865 29.4973 86.9278 30.692 86.7785 32.228H95.5145C95.5145 31.2467 95.3652 30.3933 95.0665 29.668C94.7678 28.9427 94.3092 28.3773 93.6905 27.972C93.0932 27.5453 92.3145 27.332 91.3545 27.332ZM105.656 42.5L99.16 25.348H102.168L105.816 35.46C105.987 35.9293 106.168 36.452 106.36 37.028C106.552 37.604 106.723 38.1587 106.872 38.692C107.021 39.204 107.128 39.6413 107.192 40.004H107.32C107.405 39.6413 107.523 39.1933 107.672 38.66C107.843 38.1267 108.024 37.572 108.216 36.996C108.429 36.42 108.611 35.908 108.76 35.46L112.408 25.348H115.416L108.888 42.5H105.656ZM124.434 25.028C125.906 25.028 127.165 25.348 128.21 25.988C129.277 26.628 130.087 27.5347 130.642 28.708C131.218 29.86 131.506 31.2147 131.506 32.772V34.468H119.762C119.805 36.4093 120.295 37.892 121.234 38.916C122.194 39.9187 123.527 40.42 125.234 40.42C126.322 40.42 127.282 40.324 128.114 40.132C128.967 39.9187 129.842 39.62 130.738 39.236V41.7C129.863 42.084 128.999 42.3613 128.146 42.532C127.293 42.724 126.279 42.82 125.106 42.82C123.485 42.82 122.045 42.4893 120.786 41.828C119.549 41.1667 118.578 40.1853 117.874 38.884C117.191 37.5613 116.85 35.9507 116.85 34.052C116.85 32.1747 117.159 30.564 117.778 29.22C118.418 27.876 119.303 26.8413 120.434 26.116C121.586 25.3907 122.919 25.028 124.434 25.028ZM124.402 27.332C123.058 27.332 121.991 27.7693 121.202 28.644C120.434 29.4973 119.975 30.692 119.826 32.228H128.562C128.562 31.2467 128.413 30.3933 128.114 29.668C127.815 28.9427 127.357 28.3773 126.738 27.972C126.141 27.5453 125.362 27.332 124.402 27.332ZM143.809 25.028C145.857 25.028 147.403 25.5293 148.449 26.532C149.494 27.5133 150.017 29.1133 150.017 31.332V42.5H147.233V31.524C147.233 30.1373 146.923 29.1027 146.305 28.42C145.686 27.7373 144.715 27.396 143.393 27.396C141.494 27.396 140.182 27.9293 139.457 28.996C138.731 30.0627 138.369 31.5987 138.369 33.604V42.5H135.553V25.348H137.825L138.241 27.684H138.401C138.785 27.0867 139.254 26.596 139.809 26.212C140.385 25.8067 141.014 25.508 141.697 25.316C142.379 25.124 143.083 25.028 143.809 25.028ZM160.742 40.516C161.168 40.516 161.606 40.484 162.054 40.42C162.502 40.3347 162.864 40.2493 163.142 40.164V42.308C162.843 42.4573 162.416 42.5747 161.862 42.66C161.307 42.7667 160.774 42.82 160.262 42.82C159.366 42.82 158.534 42.6707 157.766 42.372C157.019 42.052 156.411 41.508 155.942 40.74C155.472 39.972 155.238 38.8947 155.238 37.508V27.524H152.806V26.18L155.27 25.06L156.39 21.412H158.054V25.348H163.014V27.524H158.054V37.444C158.054 38.4893 158.299 39.268 158.79 39.78C159.302 40.2707 159.952 40.516 160.742 40.516Z" fill="black"/>
</svg>
